<mxfile host="app.diagrams.net" modified="2024-04-01T08:32:25.727Z" agent="Mozilla/5.0 (Windows NT 10.0; Win64; x64) AppleWebKit/537.36 (KHTML, like Gecko) Chrome/123.0.0.0 Safari/537.36 Edg/123.0.0.0" version="23.1.6" etag="WfLBxbcrATz3V2QC_NLj" type="github">
  <diagram name="Page-1" id="Q4xjp02sZWljuH2n2weU">
    <mxGraphModel>
      <root>
        <mxCell id="0" />
        <mxCell id="1" parent="0" />
      </root>
    </mxGraphModel>
  </diagram>
</mxfile>
